<?xml version="1.0" encoding="UTF-8"?>
<!DOCTYPE svg PUBLIC "-//W3C//DTD SVG 1.1//EN" "http://www.w3.org/Graphics/SVG/1.1/DTD/svg11.dtd">
<svg xmlns="http://www.w3.org/2000/svg" version="1.1" width="1024px" height="1024px" style="shape-rendering:geometricPrecision; text-rendering:geometricPrecision; image-rendering:optimizeQuality; fill-rule:evenodd; clip-rule:evenodd" xmlns:xlink="http://www.w3.org/1999/xlink">
<g><path style="opacity:1" fill="#fefefe" d="M -0.5,-0.5 C 340.833,-0.5 682.167,-0.5 1023.5,-0.5C 1023.5,340.833 1023.5,682.167 1023.5,1023.5C 682.167,1023.5 340.833,1023.5 -0.5,1023.5C -0.5,682.167 -0.5,340.833 -0.5,-0.5 Z"/></g>
<g><path style="opacity:1" fill="#1975c5" d="M 889.5,232.5 C 888.167,417.833 888.167,603.167 889.5,788.5C 883.06,830.768 860.06,859.935 820.5,876C 811.073,879.052 801.406,880.885 791.5,881.5C 603.168,881.33 414.835,881.33 226.5,881.5C 179.715,874.215 149.548,847.882 136,802.5C 134.372,796.612 133.372,790.612 133,784.5C 132.333,601.167 132.333,417.833 133,234.5C 138.753,194.472 159.92,165.972 196.5,149C 204.86,145.528 213.526,143.195 222.5,142C 414.167,141.333 605.833,141.333 797.5,142C 832.293,147.134 858.793,164.634 877,194.5C 883.277,206.498 887.444,219.165 889.5,232.5 Z"/></g>
<g><path style="opacity:1" fill="#1c2a32" d="M 726.5,732.5 C 720.921,724.352 715.087,716.352 709,708.5C 705.856,703.235 704.023,697.569 703.5,691.5C 703.1,685.359 703.767,679.359 705.5,673.5C 696.834,660.685 687.667,648.352 678,636.5C 652.55,649.405 625.716,658.072 597.5,662.5C 583.914,664.468 570.247,665.468 556.5,665.5C 503.199,664.322 455.532,647.655 413.5,615.5C 407.147,610.144 400.814,604.81 394.5,599.5C 391.473,595.806 388.14,592.473 384.5,589.5C 356.287,559.108 337.287,523.108 327.5,481.5C 322.188,455.753 320.521,429.753 322.5,403.5C 325.888,374.666 333.555,346.999 345.5,320.5C 351.398,309.037 358.065,298.037 365.5,287.5C 420.469,212.969 494.469,179.803 587.5,188C 678.759,202.288 743.926,251.121 783,334.5C 808.829,403.47 805.829,471.136 774,537.5C 759.508,564.175 741.008,587.842 718.5,608.5C 726.588,620.343 734.921,632.009 743.5,643.5C 758.621,644.311 770.454,650.978 779,663.5C 803.946,698.78 829.28,733.78 855,768.5C 864.205,785.606 863.538,802.272 853,818.5C 838.279,833.804 821.113,837.304 801.5,829C 796.871,826.095 792.704,822.595 789,818.5C 768.39,789.589 747.557,760.922 726.5,732.5 Z"/></g>
<g><path style="opacity:1" fill="#fefefe" d="M 695.5,284.5 C 679.376,283.848 663.209,283.514 647,283.5C 629.791,283.369 612.625,283.869 595.5,285C 574.682,291.483 561.849,305.316 557,326.5C 556.333,348.5 556.333,370.5 557,392.5C 561.335,408.168 571.168,418.668 586.5,424C 598.08,426.96 609.08,431.294 619.5,437C 629.779,447.731 635.613,460.564 637,475.5C 637.499,479.152 637.665,482.818 637.5,486.5C 638.782,505.979 633.449,523.313 621.5,538.5C 619.133,541.347 616.133,543.18 612.5,544C 598.807,545.787 585.807,549.787 573.5,556C 564.664,561.509 559.164,569.342 557,579.5C 556.5,593.829 556.333,608.163 556.5,622.5C 476.205,617.961 418.038,579.961 382,508.5C 368.424,477.569 362.924,445.235 365.5,411.5C 366.167,419.676 366.833,428.01 367.5,436.5C 377.602,428.571 384.768,418.571 389,406.5C 390.463,380.551 390.963,354.551 390.5,328.5C 421.465,274.777 467.798,242.61 529.5,232C 593.308,223.603 648.641,241.103 695.5,284.5 Z"/></g>
<g><path style="opacity:1" fill="#055aa5" d="M 365.5,287.5 C 358.065,298.037 351.398,309.037 345.5,320.5C 318.373,320.356 291.039,320.523 263.5,321C 255.755,323.744 250.255,328.911 247,336.5C 246.333,374.5 246.333,412.5 247,450.5C 248.377,452.754 249.877,454.92 251.5,457C 256.893,458.12 262.393,458.62 268,458.5C 273.607,458.62 279.107,458.12 284.5,457C 285.667,455.833 286.833,454.667 288,453.5C 293.811,432.869 305.311,416.203 322.5,403.5C 320.521,429.753 322.188,455.753 327.5,481.5C 324.204,487.622 319.204,491.789 312.5,494C 283.833,494.667 255.167,494.667 226.5,494C 217.215,490.383 211.048,483.883 208,474.5C 207.575,437.499 207.075,400.499 206.5,363.5C 206.398,351.127 206.898,338.794 208,326.5C 213.23,304.937 226.397,290.77 247.5,284C 287.167,283.333 326.833,283.333 366.5,284C 364.689,285.041 364.355,286.207 365.5,287.5 Z"/></g>
<g><path style="opacity:1" fill="#237fcb" d="M 345.5,320.5 C 333.555,346.999 325.888,374.666 322.5,403.5C 305.311,416.203 293.811,432.869 288,453.5C 286.833,454.667 285.667,455.833 284.5,457C 279.107,458.12 273.607,458.62 268,458.5C 262.393,458.62 256.893,458.12 251.5,457C 249.877,454.92 248.377,452.754 247,450.5C 246.333,412.5 246.333,374.5 247,336.5C 250.255,328.911 255.755,323.744 263.5,321C 291.039,320.523 318.373,320.356 345.5,320.5 Z"/></g>
<g><path style="opacity:1" fill="#a1ddf7" d="M 390.5,328.5 C 390.963,354.551 390.463,380.551 389,406.5C 384.768,418.571 377.602,428.571 367.5,436.5C 366.833,428.01 366.167,419.676 365.5,411.5C 366.092,402.352 367.426,393.352 369.5,384.5C 375.677,376.669 378.344,367.669 377.5,357.5C 380.493,347.184 384.827,337.517 390.5,328.5 Z"/></g>
<g><path style="opacity:1" fill="#0f5ab2" d="M 377.5,357.5 C 378.344,367.669 375.677,376.669 369.5,384.5C 371.101,375.077 373.768,366.077 377.5,357.5 Z"/></g>
<g><path style="opacity:1" fill="#fafafb" d="M 754.5,394.5 C 758.438,416.159 758.438,437.825 754.5,459.5C 754.5,437.833 754.5,416.167 754.5,394.5 Z"/></g>
<g><path style="opacity:1" fill="#09828b" d="M 425.5,428.5 C 471.835,428.333 518.168,428.5 564.5,429C 567.913,430.077 570.413,432.244 572,435.5C 572.667,443.5 572.667,451.5 572,459.5C 570.413,462.756 567.913,464.923 564.5,466C 518.167,466.667 471.833,466.667 425.5,466C 422.063,464.895 419.563,462.728 418,459.5C 417.333,451.5 417.333,443.5 418,435.5C 419.742,432.254 422.242,429.921 425.5,428.5 Z"/></g>
<g><path style="opacity:1" fill="#19a39c" d="M 695.5,284.5 C 727.716,314.256 747.383,350.922 754.5,394.5C 754.5,416.167 754.5,437.833 754.5,459.5C 753.006,468.638 751.006,477.638 748.5,486.5C 746.833,486.5 745.167,486.5 743.5,486.5C 721.167,486.5 698.833,486.5 676.5,486.5C 663.5,486.5 650.5,486.5 637.5,486.5C 637.665,482.818 637.499,479.152 637,475.5C 635.613,460.564 629.779,447.731 619.5,437C 609.08,431.294 598.08,426.96 586.5,424C 571.168,418.668 561.335,408.168 557,392.5C 556.333,370.5 556.333,348.5 557,326.5C 561.849,305.316 574.682,291.483 595.5,285C 612.625,283.869 629.791,283.369 647,283.5C 663.209,283.514 679.376,283.848 695.5,284.5 Z"/></g>
<g><path style="opacity:1" fill="#fdfefe" d="M 614.5,324.5 C 643.187,324.13 671.854,324.63 700.5,326C 706.477,327.307 710.643,330.807 713,336.5C 713.667,382.833 713.667,429.167 713,475.5C 712.208,477.587 711.041,479.421 709.5,481C 700.242,482.584 690.909,482.917 681.5,482C 678.825,480.164 676.992,477.664 676,474.5C 673.961,451.855 665.794,431.855 651.5,414.5C 652.637,411.53 654.637,409.364 657.5,408C 663.167,407.667 668.833,407.333 674.5,407C 678.02,406.496 680.52,404.663 682,401.5C 683.015,397.235 683.515,392.902 683.5,388.5C 683.066,380.496 682.566,372.496 682,364.5C 681.215,362.714 680.049,361.214 678.5,360C 673.609,358.886 668.609,358.386 663.5,358.5C 659.167,358.667 654.833,358.833 650.5,359C 645.432,360.628 642.932,364.128 643,369.5C 642.667,377.167 642.333,384.833 642,392.5C 641.315,395.057 639.815,396.891 637.5,398C 634.5,398.667 631.5,398.667 628.5,398C 622.275,395.388 615.942,393.055 609.5,391C 601.995,388.498 597.828,383.331 597,375.5C 596.333,363.5 596.333,351.5 597,339.5C 599.679,330.643 605.513,325.643 614.5,324.5 Z"/></g>
<g><path style="opacity:1" fill="#f6792f" d="M 676.5,486.5 C 698.833,486.5 721.167,486.5 743.5,486.5C 735.589,487.112 727.589,488.112 719.5,489.5C 720.428,490.768 720.595,492.101 720,493.5C 718.333,494.5 716.667,495.5 715,496.5C 714.697,498.888 713.863,501.055 712.5,503C 713.299,504.749 712.632,506.082 710.5,507C 709.939,508.566 710.606,509.899 712.5,511C 711.833,511.667 711.167,512.333 710.5,513C 711.833,514 711.833,515 710.5,516C 712.044,516.29 713.377,516.956 714.5,518C 703.912,517.383 693.245,517.383 682.5,518C 681.833,518.333 681.167,518.667 680.5,519C 680.728,519.399 681.062,519.565 681.5,519.5C 678.68,521.745 675.68,523.745 672.5,525.5C 674.079,520.306 675.246,514.972 676,509.5C 676.251,501.736 676.418,494.069 676.5,486.5 Z"/></g>
<g><path style="opacity:1" fill="#f46e33" d="M 743.5,486.5 C 745.167,486.5 746.833,486.5 748.5,486.5C 741.541,508.091 731.207,527.758 717.5,545.5C 717.666,538.492 717.5,531.492 717,524.5C 716.215,522.714 715.049,521.214 713.5,520C 702.886,518.169 692.219,518.002 681.5,519.5C 681.062,519.565 680.728,519.399 680.5,519C 681.167,518.667 681.833,518.333 682.5,518C 693.245,517.383 703.912,517.383 714.5,518C 713.377,516.956 712.044,516.29 710.5,516C 711.833,515 711.833,514 710.5,513C 711.167,512.333 711.833,511.667 712.5,511C 710.606,509.899 709.939,508.566 710.5,507C 712.632,506.082 713.299,504.749 712.5,503C 713.863,501.055 714.697,498.888 715,496.5C 716.667,495.5 718.333,494.5 720,493.5C 720.595,492.101 720.428,490.768 719.5,489.5C 727.589,488.112 735.589,487.112 743.5,486.5 Z"/></g>
<g><path style="opacity:1" fill="#09828b" d="M 427.5,493.5 C 472.501,493.333 517.501,493.5 562.5,494C 566.617,494.806 569.784,496.973 572,500.5C 572.667,508.5 572.667,516.5 572,524.5C 570.437,527.728 567.937,529.895 564.5,531C 518.167,531.667 471.833,531.667 425.5,531C 421.667,529.833 419.167,527.333 418,523.5C 417.333,516.167 417.333,508.833 418,501.5C 419.961,497.287 423.127,494.62 427.5,493.5 Z"/></g>
<g><path style="opacity:1" fill="#0c6bd9" d="M 303.5,509.5 C 279.5,509.5 255.5,509.5 231.5,509.5C 236.073,508.385 241.406,507.551 247.5,507C 246.984,504.967 247.65,504.967 249.5,507C 265.074,507.175 280.574,507.675 296,508.5C 296.414,508.043 296.914,507.709 297.5,507.5C 300.275,507.959 302.275,508.626 303.5,509.5 Z"/></g>
<g><path style="opacity:1" fill="#feba0e" d="M 231.5,509.5 C 255.5,509.5 279.5,509.5 303.5,509.5C 307.729,511.396 311.396,514.063 314.5,517.5C 320.029,530.229 325.862,542.896 332,555.5C 333.946,558.42 336.113,561.087 338.5,563.5C 342.431,568.657 347.098,573.157 352.5,577C 363.081,581.46 373.747,585.626 384.5,589.5C 388.14,592.473 391.473,595.806 394.5,599.5C 390.394,596.571 386.394,593.404 382.5,590C 380.5,589.5 378.5,589 376.5,588.5C 374.575,588.59 373.408,589.59 373,591.5C 372.405,587.918 371.071,587.584 369,590.5C 367.612,589.446 366.112,589.28 364.5,590C 364.833,590.333 365.167,590.667 365.5,591C 363.481,591.45 361.648,592.283 360,593.5C 357.787,589.484 356.787,589.484 357,593.5C 353.85,591.879 353.016,589.546 354.5,586.5C 352.665,585.572 352.332,584.406 353.5,583C 352.833,582.667 352.167,582.333 351.5,582C 353.405,581.174 353.739,580.007 352.5,578.5C 348.777,577.332 344.943,575.665 341,573.5C 337.896,573.851 338.063,574.351 341.5,575C 339.421,575.808 337.421,575.641 335.5,574.5C 336.089,572.627 335.422,570.96 333.5,569.5C 331.694,568.141 330.194,568.475 329,570.5C 328.178,568.212 327.511,565.878 327,563.5C 325.796,564.471 325.296,565.471 325.5,566.5C 323.417,564.545 321.417,563.212 319.5,562.5C 318.749,563.376 318.249,564.376 318,565.5C 316.631,563.304 314.798,562.97 312.5,564.5C 310.971,564.471 309.804,563.804 309,562.5C 306.175,564.82 303.342,566.32 300.5,567C 298.949,570.36 298.449,570.193 299,566.5C 301.646,565.02 301.812,563.687 299.5,562.5C 295.491,563.52 294.491,565.854 296.5,569.5C 294.065,565.063 291.899,560.396 290,555.5C 289.124,553.365 287.624,552.031 285.5,551.5C 284.025,549.59 282.025,548.424 279.5,548C 271.167,547.333 262.833,547.333 254.5,548C 253.584,548.278 252.918,548.778 252.5,549.5C 248.24,551.352 246.573,554.686 247.5,559.5C 246.336,597.664 246.169,635.998 247,674.5C 247.874,678.288 249.041,681.954 250.5,685.5C 249.542,685.047 248.708,684.381 248,683.5C 245.866,677.699 244.7,671.699 244.5,665.5C 245.343,632.836 245.51,600.17 245,567.5C 244,569.5 243,571.5 242,573.5C 241.784,571.616 241.117,569.949 240,568.5C 239.28,570.112 239.446,571.612 240.5,573C 239.833,574.667 239.167,576.333 238.5,578C 238.833,578.333 239.167,578.667 239.5,579C 237.873,578.57 236.373,578.404 235,578.5C 233.512,580.267 232.012,580.601 230.5,579.5C 231.646,578.281 232.646,576.948 233.5,575.5C 235.566,576.61 236.399,575.944 236,573.5C 234.667,574.833 233.333,574.833 232,573.5C 230.488,575.957 229.154,575.957 228,573.5C 226.245,575.478 224.078,576.311 221.5,576C 222.328,575.085 223.328,574.419 224.5,574C 222.421,573.192 220.421,573.359 218.5,574.5C 221.161,576.18 220.994,577.513 218,578.5C 215.099,577.564 214.932,576.397 217.5,575C 216.874,574.25 216.374,573.416 216,572.5C 215,573.833 214,573.833 213,572.5C 212.25,573.126 211.416,573.626 210.5,574C 211.654,574.914 211.487,575.747 210,576.5C 209.667,575.833 209.333,575.167 209,574.5C 207.771,606.822 207.271,639.155 207.5,671.5C 208.662,675.98 208.662,680.313 207.5,684.5C 206.608,674.866 206.275,665.199 206.5,655.5C 206.189,614.476 206.523,573.476 207.5,532.5C 212.254,521.412 220.254,513.745 231.5,509.5 Z"/></g>
<g><path style="opacity:1" fill="#fefdfd" d="M 717.5,545.5 C 686.662,585.644 646.329,610.644 596.5,620.5C 596.334,611.161 596.5,601.827 597,592.5C 598.167,588.667 600.667,586.167 604.5,585C 640.797,580.526 663.463,560.693 672.5,525.5C 675.68,523.745 678.68,521.745 681.5,519.5C 692.219,518.002 702.886,518.169 713.5,520C 715.049,521.214 716.215,522.714 717,524.5C 717.5,531.492 717.666,538.492 717.5,545.5 Z"/></g>
<g><path style="opacity:1" fill="#2767db" d="M 338.5,563.5 C 336.113,561.087 333.946,558.42 332,555.5C 325.862,542.896 320.029,530.229 314.5,517.5C 315.329,516.668 316.162,517.001 317,518.5C 322.59,534.344 329.757,549.344 338.5,563.5 Z"/></g>
<g><path style="opacity:1" fill="#fca619" d="M 637.5,486.5 C 650.5,486.5 663.5,486.5 676.5,486.5C 676.418,494.069 676.251,501.736 676,509.5C 675.246,514.972 674.079,520.306 672.5,525.5C 663.463,560.693 640.797,580.526 604.5,585C 600.667,586.167 598.167,588.667 597,592.5C 596.5,601.827 596.334,611.161 596.5,620.5C 583.218,622.053 569.885,622.72 556.5,622.5C 556.333,608.163 556.5,593.829 557,579.5C 559.164,569.342 564.664,561.509 573.5,556C 585.807,549.787 598.807,545.787 612.5,544C 616.133,543.18 619.133,541.347 621.5,538.5C 633.449,523.313 638.782,505.979 637.5,486.5 Z"/></g>
<g><path style="opacity:1" fill="#496cce" d="M 285.5,551.5 C 284.078,551.291 282.745,550.791 281.5,550C 271.839,549.5 262.172,549.334 252.5,549.5C 252.918,548.778 253.584,548.278 254.5,548C 262.833,547.333 271.167,547.333 279.5,548C 282.025,548.424 284.025,549.59 285.5,551.5 Z"/></g>
<g><path style="opacity:1" fill="#1b75c5" d="M 252.5,549.5 C 262.172,549.334 271.839,549.5 281.5,550C 282.745,550.791 284.078,551.291 285.5,551.5C 287.624,552.031 289.124,553.365 290,555.5C 291.899,560.396 294.065,565.063 296.5,569.5C 302.887,582.229 311.553,593.229 322.5,602.5C 303.897,617.012 296.563,635.678 300.5,658.5C 302.782,662.091 306.116,663.424 310.5,662.5C 315.511,662.666 320.511,662.499 325.5,662C 326.333,661.167 327.167,660.333 328,659.5C 329.212,652.913 329.879,646.246 330,639.5C 332.358,629.146 338.358,621.812 348,617.5C 348.765,617.57 349.265,617.903 349.5,618.5C 350.261,619.391 351.261,620.058 352.5,620.5C 353.386,621.325 353.719,622.325 353.5,623.5C 362.439,622.651 369.939,625.651 376,632.5C 377.123,649.272 377.956,665.939 378.5,682.5C 376.856,687.478 373.522,690.811 368.5,692.5C 365.695,691.681 362.695,691.181 359.5,691C 358.167,690 358.167,689 359.5,688C 357.167,687.333 354.833,687.333 352.5,688C 353.696,688.654 353.696,689.154 352.5,689.5C 351.252,688.96 350.085,688.293 349,687.5C 347.933,688.191 346.766,688.691 345.5,689C 346.167,689.333 346.833,689.667 347.5,690C 324.663,690.168 301.996,690.668 279.5,691.5C 272.426,691.839 265.426,691.339 258.5,690C 256.391,688.859 254.558,687.359 253,685.5C 252.601,685.728 252.435,686.062 252.5,686.5C 251.833,686.167 251.167,685.833 250.5,685.5C 249.041,681.954 247.874,678.288 247,674.5C 246.169,635.998 246.336,597.664 247.5,559.5C 247.333,579.836 247.5,600.169 248,620.5C 248.333,598.5 248.667,576.5 249,554.5C 249.997,552.677 251.164,551.01 252.5,549.5 Z"/></g>
<g><path style="opacity:1" fill="#0466e4" d="M 207.5,532.5 C 206.523,573.476 206.189,614.476 206.5,655.5C 204.779,615.75 204.613,575.75 206,535.5C 206.232,534.263 206.732,533.263 207.5,532.5 Z"/></g>
<g><path style="opacity:1" fill="#0162e8" d="M 252.5,549.5 C 251.164,551.01 249.997,552.677 249,554.5C 248.667,576.5 248.333,598.5 248,620.5C 247.5,600.169 247.333,579.836 247.5,559.5C 246.573,554.686 248.24,551.352 252.5,549.5 Z"/></g>
<g><path style="opacity:1" fill="#fcae15" d="M 394.5,599.5 C 400.814,604.81 407.147,610.144 413.5,615.5C 416.133,621.398 418.133,627.398 419.5,633.5C 419.5,651.167 419.5,668.833 419.5,686.5C 417.218,676.334 416.384,666.001 417,655.5C 416.431,659.361 415.598,659.361 414.5,655.5C 413.158,656.902 412.324,656.569 412,654.5C 410.806,655.43 409.473,656.097 408,656.5C 405.413,654.685 402.746,654.018 400,654.5C 399.544,655.744 400.044,656.577 401.5,657C 400.5,657.5 399.5,658 398.5,658.5C 397.049,656.441 395.049,655.441 392.5,655.5C 391.677,659.919 389.51,660.586 386,657.5C 385.667,658.5 385.333,659.5 385,660.5C 384.333,659.167 383.667,659.167 383,660.5C 382.667,659.167 382.333,657.833 382,656.5C 380.752,665.425 380.085,674.425 380,683.5C 378.262,687.241 375.762,690.408 372.5,693C 366.554,694.037 360.554,694.537 354.5,694.5C 326.668,693.956 299.001,693.29 271.5,692.5C 274.167,692.5 276.833,692.5 279.5,692.5C 309.167,692.5 338.833,692.5 368.5,692.5C 373.522,690.811 376.856,687.478 378.5,682.5C 379.619,667.199 379.786,651.865 379,636.5C 376.859,629.693 372.359,625.193 365.5,623C 360.293,620.986 354.96,619.486 349.5,618.5C 349.265,617.903 348.765,617.57 348,617.5C 338.358,621.812 332.358,629.146 330,639.5C 329.879,646.246 329.212,652.913 328,659.5C 327.167,660.333 326.333,661.167 325.5,662C 320.511,662.499 315.511,662.666 310.5,662.5C 314.312,661.676 318.312,661.176 322.5,661C 324.848,660.89 326.348,659.723 327,657.5C 327.311,651.814 327.811,646.147 328.5,640.5C 327.574,638.23 327.24,636.063 327.5,634C 328.738,634.077 329.738,633.911 330.5,633.5C 327.827,630.221 325.493,626.221 323.5,621.5C 322.522,621.977 321.689,622.643 321,623.5C 318.985,621.522 319.152,619.688 321.5,618C 319.364,615.599 318.197,612.765 318,609.5C 317.535,610.931 316.701,612.097 315.5,613C 317.107,614.049 317.773,615.549 317.5,617.5C 313.264,617.768 310.097,619.768 308,623.5C 307.667,623.167 307.333,622.833 307,622.5C 301.22,634.195 299.053,646.195 300.5,658.5C 296.563,635.678 303.897,617.012 322.5,602.5C 311.553,593.229 302.887,582.229 296.5,569.5C 294.491,565.854 295.491,563.52 299.5,562.5C 301.812,563.687 301.646,565.02 299,566.5C 298.449,570.193 298.949,570.36 300.5,567C 303.342,566.32 306.175,564.82 309,562.5C 309.804,563.804 310.971,564.471 312.5,564.5C 314.798,562.97 316.631,563.304 318,565.5C 318.249,564.376 318.749,563.376 319.5,562.5C 321.417,563.212 323.417,564.545 325.5,566.5C 325.296,565.471 325.796,564.471 327,563.5C 327.511,565.878 328.178,568.212 329,570.5C 330.194,568.475 331.694,568.141 333.5,569.5C 335.422,570.96 336.089,572.627 335.5,574.5C 337.421,575.641 339.421,575.808 341.5,575C 338.063,574.351 337.896,573.851 341,573.5C 344.943,575.665 348.777,577.332 352.5,578.5C 353.739,580.007 353.405,581.174 351.5,582C 352.167,582.333 352.833,582.667 353.5,583C 352.332,584.406 352.665,585.572 354.5,586.5C 353.016,589.546 353.85,591.879 357,593.5C 356.787,589.484 357.787,589.484 360,593.5C 361.648,592.283 363.481,591.45 365.5,591C 365.167,590.667 364.833,590.333 364.5,590C 366.112,589.28 367.612,589.446 369,590.5C 371.071,587.584 372.405,587.918 373,591.5C 373.408,589.59 374.575,588.59 376.5,588.5C 378.5,589 380.5,589.5 382.5,590C 386.394,593.404 390.394,596.571 394.5,599.5 Z"/></g>
<g><path style="opacity:1" fill="#fca419" d="M 310.5,662.5 C 306.116,663.424 302.782,662.091 300.5,658.5C 299.053,646.195 301.22,634.195 307,622.5C 307.333,622.833 307.667,623.167 308,623.5C 310.097,619.768 313.264,617.768 317.5,617.5C 317.773,615.549 317.107,614.049 315.5,613C 316.701,612.097 317.535,610.931 318,609.5C 318.197,612.765 319.364,615.599 321.5,618C 319.152,619.688 318.985,621.522 321,623.5C 321.689,622.643 322.522,621.977 323.5,621.5C 325.493,626.221 327.827,630.221 330.5,633.5C 329.738,633.911 328.738,634.077 327.5,634C 327.24,636.063 327.574,638.23 328.5,640.5C 327.811,646.147 327.311,651.814 327,657.5C 326.348,659.723 324.848,660.89 322.5,661C 318.312,661.176 314.312,661.676 310.5,662.5 Z"/></g>
<g><path style="opacity:1" fill="#fdad15" d="M 244.5,665.5 C 243.609,666.261 242.942,667.261 242.5,668.5C 243.428,669.768 243.595,671.101 243,672.5C 241.285,667.999 239.118,663.666 236.5,659.5C 234.096,660.008 233.429,661.175 234.5,663C 233.299,663.903 232.465,665.069 232,666.5C 230.43,665.386 229.097,664.053 228,662.5C 227.026,664.878 226.359,664.544 226,661.5C 222.247,664.137 218.914,664.137 216,661.5C 214.274,663.228 212.941,665.228 212,667.5C 211.667,666.833 211.333,666.167 211,665.5C 210.187,673.167 209.521,672.834 209,664.5C 208.814,667.036 208.314,669.369 207.5,671.5C 207.271,639.155 207.771,606.822 209,574.5C 209.333,575.167 209.667,575.833 210,576.5C 211.487,575.747 211.654,574.914 210.5,574C 211.416,573.626 212.25,573.126 213,572.5C 214,573.833 215,573.833 216,572.5C 216.374,573.416 216.874,574.25 217.5,575C 214.932,576.397 215.099,577.564 218,578.5C 220.994,577.513 221.161,576.18 218.5,574.5C 220.421,573.359 222.421,573.192 224.5,574C 223.328,574.419 222.328,575.085 221.5,576C 224.078,576.311 226.245,575.478 228,573.5C 229.154,575.957 230.488,575.957 232,573.5C 233.333,574.833 234.667,574.833 236,573.5C 236.399,575.944 235.566,576.61 233.5,575.5C 232.646,576.948 231.646,578.281 230.5,579.5C 232.012,580.601 233.512,580.267 235,578.5C 236.373,578.404 237.873,578.57 239.5,579C 239.167,578.667 238.833,578.333 238.5,578C 239.167,576.333 239.833,574.667 240.5,573C 239.446,571.612 239.28,570.112 240,568.5C 241.117,569.949 241.784,571.616 242,573.5C 243,571.5 244,569.5 245,567.5C 245.51,600.17 245.343,632.836 244.5,665.5 Z"/></g>
<g><path style="opacity:1" fill="#246bc1" d="M 889.5,232.5 C 890.832,417.837 890.832,603.171 889.5,788.5C 888.167,603.167 888.167,417.833 889.5,232.5 Z"/></g>
<g><path style="opacity:1" fill="#1975c6" d="M 703.5,691.5 C 670.815,691.409 638.149,691.576 605.5,692C 601.23,690.73 598.73,687.896 598,683.5C 597.5,676.508 597.334,669.508 597.5,662.5C 625.716,658.072 652.55,649.405 678,636.5C 687.667,648.352 696.834,660.685 705.5,673.5C 703.767,679.359 703.1,685.359 703.5,691.5 Z"/></g>
<g><path style="opacity:1" fill="#0769dc" d="M 419.5,690.5 C 419.5,689.167 419.5,687.833 419.5,686.5C 419.5,668.833 419.5,651.167 419.5,633.5C 420.549,633.916 421.049,635.916 421,639.5C 421.667,654.5 421.667,669.5 421,684.5C 420.897,687.319 420.397,689.319 419.5,690.5 Z"/></g>
<g><path style="opacity:1" fill="#2d6dd4" d="M 349.5,618.5 C 354.96,619.486 360.293,620.986 365.5,623C 372.359,625.193 376.859,629.693 379,636.5C 379.786,651.865 379.619,667.199 378.5,682.5C 377.956,665.939 377.123,649.272 376,632.5C 369.939,625.651 362.439,622.651 353.5,623.5C 353.719,622.325 353.386,621.325 352.5,620.5C 351.261,620.058 350.261,619.391 349.5,618.5 Z"/></g>
<g><path style="opacity:1" fill="#f56b39" d="M 597.5,662.5 C 597.334,669.508 597.5,676.508 598,683.5C 598.73,687.896 601.23,690.73 605.5,692C 638.149,691.576 670.815,691.409 703.5,691.5C 704.023,697.569 705.856,703.235 709,708.5C 715.087,716.352 720.921,724.352 726.5,732.5C 683.818,732.898 641.151,732.398 598.5,731C 579.421,727.578 565.921,717.078 558,699.5C 556.591,688.23 556.091,676.896 556.5,665.5C 570.247,665.468 583.914,664.468 597.5,662.5 Z"/></g>
<g><path style="opacity:1" fill="#fca31a" d="M 419.5,686.5 C 419.5,687.833 419.5,689.167 419.5,690.5C 412.89,719.585 394.557,733.418 364.5,732C 329.833,732.667 295.167,732.667 260.5,732C 230.838,729.509 213.171,713.675 207.5,684.5C 208.662,680.313 208.662,675.98 207.5,671.5C 208.314,669.369 208.814,667.036 209,664.5C 209.521,672.834 210.187,673.167 211,665.5C 211.333,666.167 211.667,666.833 212,667.5C 212.941,665.228 214.274,663.228 216,661.5C 218.914,664.137 222.247,664.137 226,661.5C 226.359,664.544 227.026,664.878 228,662.5C 229.097,664.053 230.43,665.386 232,666.5C 232.465,665.069 233.299,663.903 234.5,663C 233.429,661.175 234.096,660.008 236.5,659.5C 239.118,663.666 241.285,667.999 243,672.5C 243.595,671.101 243.428,669.768 242.5,668.5C 242.942,667.261 243.609,666.261 244.5,665.5C 244.7,671.699 245.866,677.699 248,683.5C 248.708,684.381 249.542,685.047 250.5,685.5C 251.167,685.833 251.833,686.167 252.5,686.5C 254.071,689.231 256.405,691.065 259.5,692C 263.486,692.499 267.486,692.666 271.5,692.5C 299.001,693.29 326.668,693.956 354.5,694.5C 360.554,694.537 366.554,694.037 372.5,693C 375.762,690.408 378.262,687.241 380,683.5C 380.085,674.425 380.752,665.425 382,656.5C 382.333,657.833 382.667,659.167 383,660.5C 383.667,659.167 384.333,659.167 385,660.5C 385.333,659.5 385.667,658.5 386,657.5C 389.51,660.586 391.677,659.919 392.5,655.5C 395.049,655.441 397.049,656.441 398.5,658.5C 399.5,658 400.5,657.5 401.5,657C 400.044,656.577 399.544,655.744 400,654.5C 402.746,654.018 405.413,654.685 408,656.5C 409.473,656.097 410.806,655.43 412,654.5C 412.324,656.569 413.158,656.902 414.5,655.5C 415.598,659.361 416.431,659.361 417,655.5C 416.384,666.001 417.218,676.334 419.5,686.5 Z"/></g>
<g><path style="opacity:1" fill="#1466e3" d="M 279.5,691.5 C 279.5,691.833 279.5,692.167 279.5,692.5C 276.833,692.5 274.167,692.5 271.5,692.5C 267.486,692.666 263.486,692.499 259.5,692C 256.405,691.065 254.071,689.231 252.5,686.5C 252.435,686.062 252.601,685.728 253,685.5C 254.558,687.359 256.391,688.859 258.5,690C 265.426,691.339 272.426,691.839 279.5,691.5 Z"/></g>
<g><path style="opacity:1" fill="#3870c7" d="M 368.5,692.5 C 338.833,692.5 309.167,692.5 279.5,692.5C 279.5,692.167 279.5,691.833 279.5,691.5C 301.996,690.668 324.663,690.168 347.5,690C 346.833,689.667 346.167,689.333 345.5,689C 346.766,688.691 347.933,688.191 349,687.5C 350.085,688.293 351.252,688.96 352.5,689.5C 353.696,689.154 353.696,688.654 352.5,688C 354.833,687.333 357.167,687.333 359.5,688C 358.167,689 358.167,690 359.5,691C 362.695,691.181 365.695,691.681 368.5,692.5 Z"/></g>
<g><path style="opacity:1" fill="#054ab5" d="M 226.5,881.5 C 414.835,881.33 603.168,881.33 791.5,881.5C 603.168,882.677 414.835,882.677 226.5,881.5 Z"/></g>
</svg>
